<svg xmlns="http://www.w3.org/2000/svg" height="800" width="1200" viewBox="-6.88869 -2.549975 59.70198 15.29985"><path d="M15.6386 3.8026l.508-.6079c.3528.289.7232.4735 1.1712.4735.3528 0 .5645-.139.5645-.368v-.0116c0-.2184-.134-.3295-.7902-.4981-.7867-.201-1.2947-.4195-1.2947-1.197v-.0109c0-.7098.5715-1.1797 1.3688-1.1797.5715 0 1.0583.1807 1.4534.4989l-.448.647c-.3458-.2396-.688-.3856-1.016-.3856-.3316 0-.5045.1513-.5045.3415v.0113c0 .2568.1693.3404.8431.514.7938.2088 1.2418.4917 1.2418 1.1754v.01c0 .7786-.5927 1.2143-1.4358 1.2143-.5927 0-1.1924-.2067-1.6616-.6265m3.5631-1.1087V.4604h.8608v2.213c0 .6385.3175.968.8431.968.5257 0 .8432-.319.8432-.9391V.4603h.8643v2.2074c0 1.1853-.6668 1.7674-1.718 1.7674-1.0513 0-1.6934-.5863-1.6934-1.7406m4.064-2.2341h.9278l1.0301 1.6534L26.2502.4604h.9278v3.9119h-.8537V1.8182l-1.1007 1.6715h-.0247l-1.09-1.6535v2.5361h-.8432m4.7237 0h.8607V.4603h-.8607zm2.5823-3.1182h-1.1924V.4603h3.2456v.7938h-1.1924v3.1182h-.8608m5.4046-1.9449v-.012c0-.6702-.4903-1.2297-1.1853-1.2297-.6915 0-1.1712.5478-1.1712 1.2188v.011c0 .6705.4903 1.23 1.1818 1.23.695 0 1.1747-.5478 1.1747-1.2181m-3.2561 0v-.012c0-1.1113.8749-2.0242 2.0814-2.0242 1.21 0 2.0743.9013 2.0743 2.0133v.0109c0 1.1137-.8749 2.0245-2.085 2.0245-1.2064 0-2.0707-.8999-2.0707-2.0126M37.3627.4604h.9313l1.0266 1.6534L40.3472.4604h.9313v3.9119h-.8572V1.8182l-1.1007 1.6715h-.0212l-1.09-1.6535v2.5361h-.8467m7.6588-1.9449v-.012c0-.6702-.4939-1.2297-1.1853-1.2297s-1.1747.5478-1.1747 1.2188v.011c0 .6705.4938 1.23 1.1888 1.23.6915 0 1.1712-.5478 1.1712-1.2181m-3.2596 0v-.012c0-1.1113.8784-2.0242 2.0884-2.0242 1.203 0 2.0743.9013 2.0743 2.0133v.0109c0 1.1137-.8819 2.0245-2.0884 2.0245-1.2065 0-2.0743-.8999-2.0743-2.0126M15.9103 5.8219h2.9492v.7655H16.764v.7952h1.845v.7651h-1.845v.8216h2.1238v.7656h-2.9775m3.5771-3.913h.8608v3.1309h1.9509v.782h-2.8117m3.2914-3.9129h2.9528v.7655h-2.099v.7952h1.845v.7651h-1.845v.8216h2.1272v.7656h-2.981m3.3762-1.9452v-.011c0-1.113.836-2.0245 2.039-2.0245.7408 0 1.1818.247 1.5452.6057l-.5504.6311c-.2998-.274-.6068-.443-.9983-.443-.6597 0-1.136.5478-1.136 1.2202v.0106c0 .6696.4657 1.2298 1.136 1.2298.4445 0 .7196-.1792 1.0265-.4583l.5504.5532c-.4057.4314-.8502.6995-1.6052.6995-1.1535 0-2.0073-.889-2.0073-2.0133m5.0694-1.1734h-1.1888V5.822h3.242v.7944h-1.1924V9.735h-.8608m4.3039-2.013c.4198 0 .6597-.2223.6597-.5518V7.158c0-.3672-.254-.5574-.6738-.5574h-.8537V7.722zm-1.7321-1.8994h1.7886c.4974 0 .882.1397 1.1394.3969.2223.2162.3387.5256.3387.8943v.0102c0 .6325-.3422 1.0294-.8396 1.2142l.956 1.3967h-1.0054l-.8396-1.252h-.6738v1.252h-.8643m3.9159 0h.8607v-3.913h-.8608zm1.411-1.9452v-.011c0-1.113.8396-2.0245 2.0426-2.0245.7373 0 1.1783.247 1.5416.6057l-.5468.6311c-.3034-.274-.6103-.443-1.0019-.443-.6597 0-1.1324.5478-1.1324 1.2202v.0106c0 .6696.4622 1.2298 1.1324 1.2298.448 0 .7197-.1792 1.0301-.4583l.5468.5532c-.4021.4314-.8501.6995-1.605.6995-1.1501 0-2.0074-.889-2.0074-2.0133M5.5633 5.0994l1.2383-.9274 1.2347.9274-1.2347.9271zm8.0363-.4632l-2.473-1.8545-.6173.4635-1.2383-.9274.6174-.4636L7.4189 0l-.6173.4628L6.1842 0l-2.473 1.8542.6174.4636-1.2347.9274-.621-.4635L0 4.6362l.6209.4632L0 5.5626l2.473 1.8549.6209-.4621 1.2347.9267-.6174.4629 2.473 1.8549.6174-.465.6173.465 2.4695-1.855-.6174-.4628 1.2383-.9267.6173.4621 2.473-1.8549-.6174-.4632" fill="#0d318f"/></svg>